<svg id="mermaidSvgChart" width="100%" xmlns="http://www.w3.org/2000/svg" xmlns:xlink="http://www.w3.org/1999/xlink" height="615" style="max-width: 804.4609375px;" viewBox="-20 -20 804.4609375 615"><style>#mermaidSvgChart{font-family:"trebuchet ms",verdana,arial,sans-serif;font-size:16px;fill:#000000;}#mermaidSvgChart .error-icon{fill:#552222;}#mermaidSvgChart .error-text{fill:#552222;stroke:#552222;}#mermaidSvgChart .edge-thickness-normal{stroke-width:2px;}#mermaidSvgChart .edge-thickness-thick{stroke-width:3.5px;}#mermaidSvgChart .edge-pattern-solid{stroke-dasharray:0;}#mermaidSvgChart .edge-pattern-dashed{stroke-dasharray:3;}#mermaidSvgChart .edge-pattern-dotted{stroke-dasharray:2;}#mermaidSvgChart .marker{fill:#666;stroke:#666;}#mermaidSvgChart .marker.cross{stroke:#666;}#mermaidSvgChart svg{font-family:"trebuchet ms",verdana,arial,sans-serif;font-size:16px;}#mermaidSvgChart g.classGroup text{fill:#999;fill:#111111;stroke:none;font-family:"trebuchet ms",verdana,arial,sans-serif;font-size:10px;}#mermaidSvgChart g.classGroup text .title{font-weight:bolder;}#mermaidSvgChart .classTitle{font-weight:bolder;}#mermaidSvgChart .node rect,#mermaidSvgChart .node circle,#mermaidSvgChart .node ellipse,#mermaidSvgChart .node polygon,#mermaidSvgChart .node path{fill:#eee;stroke:#999;stroke-width:1px;}#mermaidSvgChart .divider{stroke:#999;stroke:1;}#mermaidSvgChart g.clickable{cursor:pointer;}#mermaidSvgChart g.classGroup rect{fill:#eee;stroke:#999;}#mermaidSvgChart g.classGroup line{stroke:#999;stroke-width:1;}#mermaidSvgChart .classLabel .box{stroke:none;stroke-width:0;fill:#eee;opacity:0.5;}#mermaidSvgChart .classLabel .label{fill:#999;font-size:10px;}#mermaidSvgChart .relation{stroke:#666;stroke-width:1;fill:none;}#mermaidSvgChart .dashed-line{stroke-dasharray:3;}#mermaidSvgChart #compositionStart,#mermaidSvgChart .composition{fill:#666 !important;stroke:#666 !important;stroke-width:1;}#mermaidSvgChart #compositionEnd,#mermaidSvgChart .composition{fill:#666 !important;stroke:#666 !important;stroke-width:1;}#mermaidSvgChart #dependencyStart,#mermaidSvgChart .dependency{fill:#666 !important;stroke:#666 !important;stroke-width:1;}#mermaidSvgChart #dependencyStart,#mermaidSvgChart .dependency{fill:#666 !important;stroke:#666 !important;stroke-width:1;}#mermaidSvgChart #extensionStart,#mermaidSvgChart .extension{fill:#666 !important;stroke:#666 !important;stroke-width:1;}#mermaidSvgChart #extensionEnd,#mermaidSvgChart .extension{fill:#666 !important;stroke:#666 !important;stroke-width:1;}#mermaidSvgChart #aggregationStart,#mermaidSvgChart .aggregation{fill:#eee !important;stroke:#666 !important;stroke-width:1;}#mermaidSvgChart #aggregationEnd,#mermaidSvgChart .aggregation{fill:#eee !important;stroke:#666 !important;stroke-width:1;}#mermaidSvgChart .edgeTerminals{font-size:11px;}#mermaidSvgChart:root{--mermaid-font-family:"trebuchet ms",verdana,arial,sans-serif;}#mermaidSvgChart class{fill:apa;}</style><g></g><defs><marker id="extensionStart" class="extension" refX="0" refY="7" markerWidth="190" markerHeight="240" orient="auto"><path d="M 1,7 L18,13 V 1 Z"></path></marker></defs><defs><marker id="extensionEnd" refX="19" refY="7" markerWidth="20" markerHeight="28" orient="auto"><path d="M 1,1 V 13 L18,7 Z"></path></marker></defs><defs><marker id="compositionStart" class="extension" refX="0" refY="7" markerWidth="190" markerHeight="240" orient="auto"><path d="M 18,7 L9,13 L1,7 L9,1 Z"></path></marker></defs><defs><marker id="compositionEnd" refX="19" refY="7" markerWidth="20" markerHeight="28" orient="auto"><path d="M 18,7 L9,13 L1,7 L9,1 Z"></path></marker></defs><defs><marker id="aggregationStart" class="extension" refX="0" refY="7" markerWidth="190" markerHeight="240" orient="auto"><path d="M 18,7 L9,13 L1,7 L9,1 Z"></path></marker></defs><defs><marker id="aggregationEnd" refX="19" refY="7" markerWidth="20" markerHeight="28" orient="auto"><path d="M 18,7 L9,13 L1,7 L9,1 Z"></path></marker></defs><defs><marker id="dependencyStart" class="extension" refX="0" refY="7" markerWidth="190" markerHeight="240" orient="auto"><path d="M 5,7 L9,13 L1,7 L9,1 Z"></path></marker></defs><defs><marker id="dependencyEnd" refX="19" refY="7" markerWidth="20" markerHeight="28" orient="auto"><path d="M 18,7 L9,13 L14,7 L9,1 Z"></path></marker></defs><g id="classid-post-0" class="classGroup" transform="translate(0,499 )"><rect x="0" y="0" width="76.78125" height="71" class=" "></rect><text y="15" x="0"><tspan class="title" x="27.9921875">post</tspan></text><line x1="0" y1="21" y2="21" x2="76.78125"></line><text x="5" y="31" fill="white" class="classText"><tspan x="5">administrator</tspan><tspan x="5" dy="10">id</tspan><tspan x="5" dy="10">name</tspan><tspan x="5" dy="10">salary</tspan></text><line x1="0" y1="67" y2="67" x2="76.78125"></line><text x="5" y="82" fill="white" class="classText"></text></g><g id="classid-museum-1" class="classGroup" transform="translate(253.953125,494 )"><rect x="0" y="0" width="58.671875" height="81" class=" "></rect><text y="15" x="0"><tspan class="title" x="9.6015625">museum</tspan></text><line x1="0" y1="21" y2="21" x2="58.671875"></line><text x="5" y="31" fill="white" class="classText"><tspan x="5">endTime</tspan><tspan x="5" dy="10">id</tspan><tspan x="5" dy="10">name</tspan><tspan x="5" dy="10">price</tspan><tspan x="5" dy="10">startTime</tspan></text><line x1="0" y1="77" y2="77" x2="58.671875"></line><text x="5" y="92" fill="white" class="classText"></text></g><g id="classid-employee-2" class="classGroup" transform="translate(10.4609375,373 )"><rect x="0" y="0" width="55.859375" height="61" class=" "></rect><text y="15" x="0"><tspan class="title" x="5">employee</tspan></text><line x1="0" y1="21" y2="21" x2="55.859375"></line><text x="5" y="31" fill="white" class="classText"><tspan x="5">id</tspan><tspan x="5" dy="10">id_post</tspan><tspan x="5" dy="10">name</tspan></text><line x1="0" y1="57" y2="57" x2="55.859375"></line><text x="5" y="72" fill="white" class="classText"></text></g><g id="classid-workingDaySheduie-3" class="classGroup" transform="translate(133.3359375,363 )"><rect x="0" y="0" width="102.734375" height="81" class=" "></rect><text y="15" x="0"><tspan class="title" x="5">workingDaySheduie</tspan></text><line x1="0" y1="21" y2="21" x2="102.734375"></line><text x="5" y="31" fill="white" class="classText"><tspan x="5">endTime</tspan><tspan x="5" dy="10">id</tspan><tspan x="5" dy="10">idMuseum</tspan><tspan x="5" dy="10">name</tspan><tspan x="5" dy="10">startTime</tspan></text><line x1="0" y1="77" y2="77" x2="102.734375"></line><text x="5" y="92" fill="white" class="classText"></text></g><g id="classid-employee_to_workingDaySheduie-4" class="classGroup" transform="translate(18.6953125,242 )"><rect x="0" y="0" width="168.6875" height="51" class=" "></rect><text y="15" x="0"><tspan class="title" x="5">employee_to_workingDaySheduie</tspan></text><line x1="0" y1="21" y2="21" x2="168.6875"></line><text x="5" y="31" fill="white" class="classText"><tspan x="5">id_employee</tspan><tspan x="5" dy="10">id_workingDaySheduie</tspan></text><line x1="0" y1="47" y2="47" x2="168.6875"></line><text x="5" y="62" fill="white" class="classText"></text></g><g id="classid-building-5" class="classGroup" transform="translate(493.328125,373 )"><rect x="0" y="0" width="59.953125" height="61" class=" "></rect><text y="15" x="0"><tspan class="title" x="10.796875">building</tspan></text><line x1="0" y1="21" y2="21" x2="59.953125"></line><text x="5" y="31" fill="white" class="classText"><tspan x="5">id</tspan><tspan x="5" dy="10">idMuseum</tspan><tspan x="5" dy="10">name</tspan></text><line x1="0" y1="57" y2="57" x2="59.953125"></line><text x="5" y="72" fill="white" class="classText"></text></g><g id="classid-room-6" class="classGroup" transform="translate(376.9609375,222 )"><rect x="0" y="0" width="74.0625" height="91" class=" "></rect><text y="15" x="0"><tspan class="title" x="24.734375">room</tspan></text><line x1="0" y1="21" y2="21" x2="74.0625"></line><text x="5" y="31" fill="white" class="classText"><tspan x="5">area</tspan><tspan x="5" dy="10">id</tspan><tspan x="5" dy="10">id_exhibition</tspan><tspan x="5" dy="10">idBuilding</tspan><tspan x="5" dy="10">name</tspan><tspan x="5" dy="10">werehouse</tspan></text><line x1="0" y1="87" y2="87" x2="74.0625"></line><text x="5" y="102" fill="white" class="classText"></text></g><g id="classid-excursion-7" class="classGroup" transform="translate(237.3828125,222 )"><rect x="0" y="0" width="72.65625" height="91" class=" "></rect><text y="15" x="0"><tspan class="title" x="13.5625">excursion</tspan></text><line x1="0" y1="21" y2="21" x2="72.65625"></line><text x="5" y="31" fill="white" class="classText"><tspan x="5">endTime</tspan><tspan x="5" dy="10">id</tspan><tspan x="5" dy="10">name</tspan><tspan x="5" dy="10">peopleCount</tspan><tspan x="5" dy="10">price</tspan><tspan x="5" dy="10">startTime</tspan></text><line x1="0" y1="87" y2="87" x2="72.65625"></line><text x="5" y="102" fill="white" class="classText"></text></g><g id="classid-room_to_excursion-8" class="classGroup" transform="translate(233.1875,111 )"><rect x="0" y="0" width="101.046875" height="51" class=" "></rect><text y="15" x="0"><tspan class="title" x="5">room_to_excursion</tspan></text><line x1="0" y1="21" y2="21" x2="101.046875"></line><text x="5" y="31" fill="white" class="classText"><tspan x="5">id_excursion</tspan><tspan x="5" dy="10">id_room</tspan></text><line x1="0" y1="47" y2="47" x2="101.046875"></line><text x="5" y="62" fill="white" class="classText"></text></g><g id="classid-exhibition-9" class="classGroup" transform="translate(286.0703125,363 )"><rect x="0" y="0" width="58.671875" height="81" class=" "></rect><text y="15" x="0"><tspan class="title" x="5.5390625">exhibition</tspan></text><line x1="0" y1="21" y2="21" x2="58.671875"></line><text x="5" y="31" fill="white" class="classText"><tspan x="5">endTime</tspan><tspan x="5" dy="10">id</tspan><tspan x="5" dy="10">name</tspan><tspan x="5" dy="10">price</tspan><tspan x="5" dy="10">startTime</tspan></text><line x1="0" y1="77" y2="77" x2="58.671875"></line><text x="5" y="92" fill="white" class="classText"></text></g><g id="classid-characteristicName-10" class="classGroup" transform="translate(501.0234375,242 )"><rect x="0" y="0" width="100.71875" height="51" class=" "></rect><text y="15" x="0"><tspan class="title" x="5">characteristicName</tspan></text><line x1="0" y1="21" y2="21" x2="100.71875"></line><text x="5" y="31" fill="white" class="classText"><tspan x="5">id</tspan><tspan x="5" dy="10">name</tspan></text><line x1="0" y1="47" y2="47" x2="100.71875"></line><text x="5" y="62" fill="white" class="classText"></text></g><g id="classid-characteristicValue-11" class="classGroup" transform="translate(439.40234375,101 )"><rect x="0" y="0" width="99.78125" height="71" class=" "></rect><text y="15" x="0"><tspan class="title" x="5">characteristicValue</tspan></text><line x1="0" y1="21" y2="21" x2="99.78125"></line><text x="5" y="31" fill="white" class="classText"><tspan x="5">id</tspan><tspan x="5" dy="10">idName</tspan><tspan x="5" dy="10">type</tspan><tspan x="5" dy="10">value</tspan></text><line x1="0" y1="67" y2="67" x2="99.78125"></line><text x="5" y="82" fill="white" class="classText"></text></g><g id="classid-exhibit-12" class="classGroup" transform="translate(589.18359375,106 )"><rect x="0" y="0" width="48.578125" height="61" class=" "></rect><text y="15" x="0"><tspan class="title" x="7.296875">exhibit</tspan></text><line x1="0" y1="21" y2="21" x2="48.578125"></line><text x="5" y="31" fill="white" class="classText"><tspan x="5">id</tspan><tspan x="5" dy="10">idRoom</tspan><tspan x="5" dy="10">name</tspan></text><line x1="0" y1="57" y2="57" x2="48.578125"></line><text x="5" y="72" fill="white" class="classText"></text></g><g id="classid-exhibit_to_character-13" class="classGroup" transform="translate(496.4921875,0 )"><rect x="0" y="0" width="109.78125" height="51" class=" "></rect><text y="15" x="0"><tspan class="title" x="5">exhibit_to_character</tspan></text><line x1="0" y1="21" y2="21" x2="109.78125"></line><text x="5" y="31" fill="white" class="classText"><tspan x="5">idCharacteristic</tspan><tspan x="5" dy="10">idExhibit</tspan></text><line x1="0" y1="47" y2="47" x2="109.78125"></line><text x="5" y="62" fill="white" class="classText"></text></g><g id="classid-building_to_museum-14" class="classGroup" transform="translate(656.2734375,0 )"><rect x="0" y="0" width="108.1875" height="51" class=" "></rect><text y="15" x="0"><tspan class="title" x="5">building_to_museum</tspan></text><line x1="0" y1="21" y2="21" x2="108.1875"></line><text x="5" y="31" fill="white" class="classText"><tspan x="5">id_building</tspan><tspan x="5" dy="10">id_museum</tspan></text><line x1="0" y1="47" y2="47" x2="108.1875"></line><text x="5" y="62" fill="white" class="classText"></text></g><path d="M38.390625,434L38.390625,439.8333333333333C38.390625,445.6666666666667,38.390625,457.3333333333333,38.390625,468.1666666666667C38.390625,479,38.390625,489,38.390625,494L38.390625,499" id="edge0" class="relation" marker-end="url(#extensionEnd)"></path><g class="classLabel"><rect class="box" x="31.671875" y="455" width="13.859375" height="16"></rect><text class="label" x="38.390625" y="466.5" fill="red" text-anchor="middle">id</text></g><path d="M184.703125,444L184.703125,448.1666666666667C184.703125,452.3333333333333,184.703125,460.6666666666667,196.24479166666666,472.50155849644716C207.78645833333334,484.33645032622763,230.86979166666666,499.6729006524553,242.41145833333334,507.3411258155691L253.953125,515.009350978683" id="edge1" class="relation" marker-end="url(#extensionEnd)"></path><g class="classLabel"><rect class="box" x="202.203125" y="473.578125" width="13.859375" height="16.015625"></rect><text class="label" x="208.9165929272374" y="485.0873060545176" fill="red" text-anchor="middle">id</text></g><path d="M79.65558510638297,293L72.77809175531915,300.5C65.90059840425532,308,52.14561170212766,323,45.26811835106383,336.3333333333333C38.390625,349.6666666666667,38.390625,361.3333333333333,38.390625,367.1666666666667L38.390625,373" id="edge2" class="relation" marker-end="url(#extensionEnd)"></path><g class="classLabel"><rect class="box" x="40.46875" y="316.890625" width="13.875" height="16.015625"></rect><text class="label" x="47.19559420784037" y="328.3980613738306" fill="red" text-anchor="middle">id</text></g><path d="M132.57712765957447,293L141.26479388297872,300.5C149.95246010638297,308,167.32779255319147,323,176.01545877659575,334.6666666666667C184.703125,346.3333333333333,184.703125,354.6666666666667,184.703125,358.8333333333333L184.703125,363" id="edge3" class="relation" marker-end="url(#extensionEnd)"></path><g class="classLabel"><rect class="box" x="161.375" y="312.15625" width="13.875" height="16.015625"></rect><text class="label" x="168.10202165161246" y="323.6683864330002" fill="red" text-anchor="middle">id</text></g><path d="M523.3046875,434L523.3046875,439.8333333333333C523.3046875,445.6666666666667,523.3046875,457.3333333333333,488.19140625,472.74904248855324C453.078125,488.1647516437732,382.8515625,507.3295032875464,347.73828125,516.911879109433L312.625,526.4942549313196" id="edge4" class="relation" marker-end="url(#extensionEnd)"></path><g class="classLabel"><rect class="box" x="428.125" y="481.625" width="13.875" height="16.015625"></rect><text class="label" x="434.84747488277685" y="493.1398760036065" fill="red" text-anchor="middle">id</text></g><path d="M376.9609375,293.9814961565893L366.7018229166667,301.3179134638244C356.4427083333333,308.6543307710595,335.9244791666667,323.3271653855298,325.6653645833333,334.83024935943155C315.40625,346.3333333333333,315.40625,354.6666666666667,315.40625,358.8333333333333L315.40625,363" id="edge5" class="relation" marker-end="url(#extensionEnd)"></path><g class="classLabel"><rect class="box" x="329.296875" y="311.75" width="13.859375" height="16.015625"></rect><text class="label" x="336.01590116306886" y="323.2617884067253" fill="red" text-anchor="middle">id</text></g><path d="M451.0234375,291.3829331046312L463.0703125,299.15244425385936C475.1171875,306.92195540308745,499.2109375,322.46097770154375,511.2578125,336.0638221841052C523.3046875,349.6666666666667,523.3046875,361.3333333333333,523.3046875,367.1666666666667L523.3046875,373" id="edge6" class="relation" marker-end="url(#extensionEnd)"></path><g class="classLabel"><rect class="box" x="495.15625" y="312.671875" width="13.859375" height="16.015625"></rect><text class="label" x="501.8707364479095" y="324.1763883437633" fill="red" text-anchor="middle">id</text></g><path d="M279.49606146694214,162L278.53187413911843,167.83333333333334C277.5676868112948,173.66666666666666,275.63931215564736,185.33333333333334,274.6751248278237,195.33333333333334C273.7109375,205.33333333333334,273.7109375,213.66666666666666,273.7109375,217.83333333333334L273.7109375,222" id="edge7" class="relation" marker-end="url(#extensionEnd)"></path><g class="classLabel"><rect class="box" x="267.84375" y="180.328125" width="13.875" height="16.015625"></rect><text class="label" x="274.56504202192036" y="191.8326676423817" fill="red" text-anchor="middle">id</text></g><path d="M309.7081611570248,162L315.65523846418733,167.83333333333334C321.6023157713499,173.66666666666666,333.4964703856749,185.33333333333334,344.70526644283746,196.5739949891812C355.9140625,207.81465664502903,366.4375,218.6293132900581,371.69921875,224.0366416125726L376.9609375,229.44396993508713" id="edge8" class="relation" marker-end="url(#extensionEnd)"></path><g class="classLabel"><rect class="box" x="336.984375" y="183.84375" width="13.875" height="16.015625"></rect><text class="label" x="343.70823531512684" y="195.34978774925167" fill="red" text-anchor="middle">id</text></g><path d="M489.29296875,172L489.29296875,176.16666666666666C489.29296875,180.33333333333334,489.29296875,188.66666666666666,495.8982712765957,200.33333333333334C502.5035738031915,212,515.714178856383,227,522.3194813829787,234.5L528.9247839095744,242" id="edge9" class="relation" marker-end="url(#extensionEnd)"></path><g class="classLabel"><rect class="box" x="494.125" y="198.609375" width="13.875" height="16.015625"></rect><text class="label" x="500.847290619463" y="210.11937094055168" fill="red" text-anchor="middle">id</text></g><path d="M613.47265625,167L613.47265625,172C613.47265625,177,613.47265625,187,586.3977864583334,201.5687479194C559.3229166666666,216.1374958388,505.1731770833333,235.2749916776,478.0983072916667,244.843739597L451.0234375,254.41248751640003" id="edge10" class="relation" marker-end="url(#extensionEnd)"></path><g class="classLabel"><rect class="box" x="539.671875" y="209.203125" width="13.859375" height="16.015625"></rect><text class="label" x="546.3907838973728" y="220.70794509605452" fill="red" text-anchor="middle">id</text></g><path d="M520.0305151608911,51L514.9075907590759,55.166666666666664C509.78466635726073,59.333333333333336,499.5388175536304,67.66666666666667,494.41589315181517,76C489.29296875,84.33333333333333,489.29296875,92.66666666666667,489.29296875,96.83333333333333L489.29296875,101" id="edge11" class="relation" marker-end="url(#extensionEnd)"></path><g class="classLabel"><rect class="box" x="488.25" y="59.875" width="13.859375" height="16.015625"></rect><text class="label" x="494.96429313129585" y="71.38729904992813" fill="red" text-anchor="middle">id</text></g><path d="M582.7351098391089,51L587.8580342409241,55.166666666666664C592.9809586427392,59.333333333333336,603.2268074463697,67.66666666666667,608.3497318481849,76.83333333333333C613.47265625,86,613.47265625,96,613.47265625,101L613.47265625,106" id="edge12" class="relation" marker-end="url(#extensionEnd)"></path><g class="classLabel"><rect class="box" x="603.015625" y="61.453125" width="13.875" height="16.015625"></rect><text class="label" x="609.7408216335341" y="72.96475885991374" fill="red" text-anchor="middle">id</text></g></svg>